<svg xmlns="http://www.w3.org/2000/svg" viewBox="0 0 37.85 47.69"><g id="Layer_2" data-name="Layer 2"><path d="M9.24 6.32c4.64-5.73 10-8.84 14-3.75 4.61.24 6.58 7.24 3.41 10.69a1.33 1.33 0 0 1 .63.14 1.14 1.14 0 0 1 .52.65 2.15 2.15 0 0 1 0 1.17 5.92 5.92 0 0 0-.16.61c-.21.92-.44 1.93-1.49 1.88h-.17c0 1.9-1 2.78-2.19 3.92a14.19 14.19 0 0 0 1.05 1.4c2.06 1.86 7.37 2.23 9.63 3.49a5.9 5.9 0 0 1 1.89 1.6c.07.1.15.2.21.3H1.65l.21-.29a5.9 5.9 0 0 1 1.89-1.6c2.19-1.22 7.19-1.61 9.42-3.31a8.68 8.68 0 0 0 .42-.86c.18-.41.35-.85.49-1.23a4.86 4.86 0 0 1-1.72-3.4h-.1a1.51 1.51 0 0 1-.71-.19 2 2 0 0 1-.88-1.41 6.9 6.9 0 0 1 0-2.26.23.23 0 0 1 0-.11 1.29 1.29 0 0 1 .66-.85c-.13-2.28.26-5.9-2.09-6.61ZM1.49 29.6h34.87a1.57 1.57 0 0 1 1.48 1.85l-1.93 14.39a2 2 0 0 1-1.85 1.85H3.79a2 2 0 0 1-1.85-1.85L0 31.45a1.56 1.56 0 0 1 1.49-1.85Zm17.27 6.67a2.21 2.21 0 1 1-2.22 2.21 2.21 2.21 0 0 1 2.22-2.21Zm4.38-14.06a5.56 5.56 0 0 1-3.84 1.67 6.18 6.18 0 0 1-4.1-1.75l-.45-.4c-.12.33-.26.67-.4 1a8.33 8.33 0 0 1-.61 1.17c2.19 4.44 8.65 4.59 10.75 0a11.85 11.85 0 0 1-1.35-1.69Zm-.53-15.35a5 5 0 0 1-3.27 1.47l-1 .13a6.82 6.82 0 0 0-3.49 1.22 3.48 3.48 0 0 0-1.32 1.64 4.22 4.22 0 0 0-.05 2.3.47.47 0 0 1-.35.55.46.46 0 0 1-.26 0l-.49-.17c-.44-.15-.71-.2-.84.11a6.36 6.36 0 0 0 0 1.89 1.18 1.18 0 0 0 .44.81.55.55 0 0 0 .26.06 1.15 1.15 0 0 0 .39-.07h.12a.47.47 0 0 1 .47.45A4.59 4.59 0 0 0 15.35 21l.47.4A5.25 5.25 0 0 0 19.3 23a4.81 4.81 0 0 0 3.31-1.52l.48-.45c1.18-1.11 2.05-1.92 1.88-3.91a.5.5 0 0 1 .03-.32.47.47 0 0 1 .64-.13 1.27 1.27 0 0 0 .23.12.72.72 0 0 0 .19 0c.29 0 .43-.6.56-1.16.06-.25.11-.5.18-.71a1.29 1.29 0 0 0 .05-.65.24.24 0 0 0-.08-.11.44.44 0 0 0-.24 0 1.66 1.66 0 0 0-.78.35.48.48 0 0 1-.35.08.46.46 0 0 1-.38-.53c.44-2.52.24-4.17-.3-5.29a4.45 4.45 0 0 0-2-2l-.13.1Z" style="fill:#fff;fill-rule:evenodd" id="Layer_1-2" data-name="Layer 1"/></g></svg>