<svg xmlns="http://www.w3.org/2000/svg" viewBox="0 0 33.86 33.86"><defs><style>.cls-1 {
  fill: #fff;
  fill-rule: evenodd;
}

</style></defs><g id="Layer_2" data-name="Layer 2"><g id="Layer_1-2" data-name="Layer 1"><path class="cls-1" d="M16.93,0A16.93,16.93,0,1,1,0,16.93,16.93,16.93,0,0,1,16.93,0Zm0,8L8.28,16.46l2.11,1.11,6.48-6.81,6.59,6.81,2.11-1.11L16.93,8ZM10.85,18.5h0l6.09-6.09L23,18.5h0v6H18.57V20.25H15.25v4.22h-4.4v-6Zm6.08-16A14.43,14.43,0,1,1,2.5,16.93,14.43,14.43,0,0,1,16.93,2.5Z"></path></g></g></svg>