<svg xmlns="http://www.w3.org/2000/svg" width="32" height="32"><g fill-rule="evenodd" transform="translate(0 -1020.362)"><circle cx="16" cy="1036.362" r="16" fill="#424242"/><path style="text-indent:0;text-align:start;text-transform:none;block-progression:tb;isolation:auto;mix-blend-mode:normal;line-height:normal;text-decoration-line:none;text-decoration-style:solid;text-decoration-color:#000" fill="#1f212a" d="M23.582 30.072a16 16 0 0 0 1.063-.61 16 16 0 0 0 1.3-.929 16 16 0 0 0 1.201-1.054 16 16 0 0 0 1.092-1.172 16 16 0 0 0 .967-1.272 16 16 0 0 0 .51-.83L19.018 13.508A.5.5 0 0 0 18.51 13h-5a.5.5 0 0 0-.051 0 .5.5 0 0 0 .05 1l2 2h-2a.5.5 0 0 0-.05 0 .5.5 0 0 0 .05 1l2 2h-2a.5.5 0 0 0-.05 0 .5.5 0 0 0 .05 1l10.073 10.072z" color="#000" font-family="sans-serif" font-weight="400" transform="translate(0 1020.362)"/><path style="text-indent:0;text-align:start;text-transform:none;block-progression:tb;isolation:auto;mix-blend-mode:normal;line-height:normal;text-decoration-line:none;text-decoration-style:solid;text-decoration-color:#000" fill="#fff" d="M5.45 5a.5.5 0 0 0 .05 1h5a.5.5 0 1 0 0-1h-5a.5.5 0 0 0-.05 0Zm0 3a.5.5 0 0 0 .05 1h5a.5.5 0 1 0 0-1h-5a.5.5 0 0 0-.05 0Zm0 3a.5.5 0 0 0 .05 1h5a.5.5 0 1 0 0-1h-5a.5.5 0 0 0-.05 0z" color="#000" font-family="sans-serif" font-weight="400" overflow="visible" transform="translate(8.01 1028.363)"/></g></svg>