<svg xmlns="http://www.w3.org/2000/svg" viewBox="0 0 42.14 36.16"><defs><style>.cls-1 {
  fill: #fff;
}

</style></defs><g id="Layer_2" data-name="Layer 2"><g id="Layer_1-2" data-name="Layer 1"><path class="cls-1" d="M21.05,9.27l2,4.64,5,.45a.4.4,0,0,1,.23.71l-3.8,3.32,1.12,4.92a.4.4,0,0,1-.3.49.41.41,0,0,1-.31-.06l-4.33-2.58-4.33,2.59a.41.41,0,0,1-.56-.14.39.39,0,0,1,0-.3l1.12-4.92-3.8-3.32a.4.4,0,0,1,0-.57.37.37,0,0,1,.29-.13l5-.45,2-4.65a.4.4,0,0,1,.53-.21.38.38,0,0,1,.22.21ZM21.59,0h0a23.7,23.7,0,0,1,14.65,5.4,15.77,15.77,0,0,1,5.88,12.4v0a15.79,15.79,0,0,1-6.63,12,23.61,23.61,0,0,1-15,4.53,26.05,26.05,0,0,1-4.66-.56,24.59,24.59,0,0,1-4-1.23l-9,3.55,3-7.17a17.7,17.7,0,0,1-4.29-5.38,14.5,14.5,0,0,1-1.58-7,15.75,15.75,0,0,1,6.62-12A23.63,23.63,0,0,1,21.59,0Zm0,2.07h0A21.63,21.63,0,0,0,7.88,6.19a13.7,13.7,0,0,0-5.8,10.45,12.39,12.39,0,0,0,1.36,6,15.84,15.84,0,0,0,4.33,5.2l.62.49L6.67,32.43l5.24-2.06.39.17a23.06,23.06,0,0,0,8.31,1.79,21.62,21.62,0,0,0,13.65-4.11,13.74,13.74,0,0,0,5.81-10.45v0A13.76,13.76,0,0,0,34.91,7a21.56,21.56,0,0,0-13.36-4.9Z"></path></g></g></svg>