<svg xmlns="http://www.w3.org/2000/svg" viewBox="0 0 38.21 37.25"><g id="Layer_2" data-name="Layer 2"><path d="M15.54 0a15.55 15.55 0 0 1 15.54 15.53 15.56 15.56 0 0 1-.8 4.95c-.09.26-.18.51-.28.74a15.9 15.9 0 0 1-1.72 3.2l9 8.13v.05a2.67 2.67 0 0 1 .82 1.8 2.7 2.7 0 0 1-.61 1.86v.06h-.05a2.71 2.71 0 0 1-3.66.21l-.06-.06-9.25-8.31c-.28.19-.55.38-.84.55s-.78.46-1.18.66a15.5 15.5 0 0 1-6.93 1.62A15.53 15.53 0 0 1 0 15.55 15.55 15.55 0 0 1 15.53 0Zm0 3.49a12.05 12.05 0 0 0-12 12 12.05 12.05 0 0 0 12 12.05 12.05 12.05 0 0 0 12.05-12 12.05 12.05 0 0 0-12-12Z" style="fill:#fff" id="Layer_1-2" data-name="Layer 1"/></g></svg>