<svg xmlns="http://www.w3.org/2000/svg" viewBox="0 0 38.21 37.25"><defs><style>.cls-1 {
  fill: #fff;
}

</style></defs><g id="Layer_2" data-name="Layer 2"><g id="Layer_1-2" data-name="Layer 1"><path class="cls-1" d="M15.54,0h0A15.55,15.55,0,0,1,31.08,15.53h0a15.56,15.56,0,0,1-.8,4.95c-.09.26-.18.51-.28.74h0a15.9,15.9,0,0,1-1.72,3.2l9,8.13h0l0,.05h0a2.67,2.67,0,0,1,.82,1.8,2.7,2.7,0,0,1-.61,1.86h0l0,.06h0l-.05,0h0a2.71,2.71,0,0,1-3.66.21h0l-.06-.06h0l-9.25-8.31c-.28.19-.55.38-.84.55s-.78.46-1.18.66a15.5,15.5,0,0,1-6.93,1.62h0A15.53,15.53,0,0,1,0,15.55H0A15.55,15.55,0,0,1,15.53,0h0Zm0,3.49h0a12.05,12.05,0,0,0-12,12h0a12.05,12.05,0,0,0,12,12.05h0a12.05,12.05,0,0,0,12.05-12h0a12.05,12.05,0,0,0-12-12Z"></path></g></g></svg>